<?xml version="1.0" encoding="UTF-8"?>
<svg id="_图层_1" data-name="图层 1" xmlns="http://www.w3.org/2000/svg" viewBox="0 0 1440 1440">
  <defs>
    <style>
      .cls-1 {
        stroke-width: 0px;
      }

      .cls-2 {
        stroke-width: 8px;
      }

      .cls-2, .cls-3, .cls-4 {
        fill: #fff;
        stroke: #000;
        stroke-miterlimit: 10;
      }

      .cls-3 {
        stroke-width: 10px;
      }

      .cls-4 {
        stroke-width: 2px;
      }
    </style>
  </defs>
  <circle class="cls-1" cx="720" cy="720" r="564.24"/>
  <path class="cls-3" d="M975.73,1020.76c-20.71-67.92-59.63-131.61-112.57-184.18-51.95-51.6-115.1-90.37-182.6-112.12-78.54-25.3-135.64-18.77-186.01-13.01-49.36,5.65-88.35,10.1-145.81-14.12-1.76-.74-43.49-18.56-85.24-55.43-49.3-43.55-76-93.38-79.36-148.1-6.48-105.67,78.87-183.38,96.04-197.88,17-14.36,18.55-38.53,3.46-53.98-15.09-15.45-41.11-16.33-58.11-1.97-15.15,12.8-44.55,40.24-71.22,80.25-38.52,57.78-56.14,118.23-52.37,179.67,2.51,40.9,14.62,80.14,36,116.65,17.02,29.06,39.92,56.4,68.07,81.26,50.5,44.61,101.58,66.82,107.24,69.2,78.23,32.98,137.35,26.22,189.5,20.26,45.52-5.21,88.52-10.12,149.21,9.43,94.82,30.55,219.22,145.08,244.51,246.43,13.33,53.41,15.11,90.66,15.11,90.66,0,16.94,2.38,33.8,3.48,50.71,1.73,26.51,2.12,34.77,8.52,39.1,6.22,4.21,18.81.02,43.74-8.52,26.54-9.09,29.96-13.22,31.74-16.26,2.23-3.8,1.43-14.17-.19-34.92-.82-10.52-1.26-21.31-3.28-41.49,0,0,0,0,0,0-1.8-15.99-4.43-33.98-8.32-53.5,0,0-4.9-26.31-11.55-48.14Z"/>
  <g>
    <g>
      <path class="cls-4" d="M978.43,199.71c-8.74-6.97-28.96,3.39-69.26,24.03-6.66,3.41-10.08,5.37-14.4,7.85-4.86,2.79-10.91,6.26-24.05,13.15-4.18,2.19-8.97,4.67-14.31,7.44-8.72,4.52-18.61,9.64-29.84,15.56-.09.05-9.19,4.78-22.17,12.25-7.55,4.35-9.27,5.46-13.87,8.42-4.95,3.19-13.23,8.54-35.79,22.43l-8.08,4.97c-20.22,12.42-26.34,16.17-26.46,18.72,0,0,.05.43.17.91,1.1,4.24,19.47,13.26,130.09,25.92l.23.08c47.63,28.69,77.85,37.85,89.81,27.23,4.41-3.91,4.89-9.28,5.86-19.99.61-6.8,1.45-16.11,3.66-28.6,2.18-12.36,3.98-18.12,6.95-27.67,2.12-6.8,4.76-15.27,8.56-29.3,13.88-51.3,20.84-77.05,12.9-83.4Z"/>
      <path class="cls-4" d="M979.14,198.82c-9.3-7.43-29.76,3.04-70.51,23.91-6.68,3.42-10.28,5.49-14.44,7.88-4.85,2.78-10.89,6.25-24.01,13.13-4.18,2.19-8.97,4.67-14.31,7.44-8.72,4.52-18.61,9.64-29.84,15.56-.09.05-9.21,4.79-22.21,12.27-7.57,4.36-9.3,5.47-13.92,8.45-4.94,3.19-13.22,8.53-35.77,22.42l-8.08,4.96c-21.71,13.33-26.87,16.5-27.01,19.73,0,.02.05.55.21,1.16,2.09,8.04,46.14,17.04,130.94,26.76,34.89,21,60.59,31.55,76.79,31.55,6.11,0,10.88-1.5,14.27-4.51,4.74-4.21,5.24-9.74,6.24-20.74.61-6.78,1.45-16.07,3.65-28.5,2.17-12.28,3.96-18.02,6.92-27.53,2.12-6.81,4.76-15.29,8.57-29.35,14.01-51.79,21.04-77.78,12.51-84.6ZM966.08,283.26c-9.21,34.04-11.79,35.95-15.5,56.92-5.67,32.08-2.22,42.27-9.7,48.92-9.11,8.09-31.54,8.34-90.49-27.17-115.25-13.2-129.5-22.22-130.58-26.35-.15-.57-.19-1.07-.19-1.07.14-3.18,7.05-7.06,34.81-24.15,43.35-26.69,33.91-21.79,49.67-30.86,13.14-7.56,22.19-12.26,22.19-12.26,18.21-9.61,33.24-17.28,44.15-23,24.39-12.79,24-13.6,38.45-21,40.58-20.78,60.87-31.18,69.89-23.97,8.24,6.58,1.26,32.39-12.7,84Z"/>
    </g>
    <path class="cls-2" d="M1134.65,578.47c-11.61-4.79-24.76-10.22-38.31-28.09-14.27-18.83-20.19-39.77-30.93-77.81-4.26-15.07-5.64-22.77-6.65-28.4-1.13-6.29-1.81-10.08-5.34-18.64-14.44-34.97-38.29-56.27-51.1-67.71-22.22-19.85-42.69-30.45-46.02-32.11-27.54-14.99-59.44-19.98-91.92-20.97.29-4.2.72-8.92,1.25-14.44,1.34-14.03,3.17-21.47,9.95-49.17,1.1-4.49,2.33-9.51,3.71-15.18,8.32-34.17,10.64-44.84,12.34-60.31.02-.18,1.9-17.86-.59-41.14-2.87-26.79-8.16-29.03-9.9-29.76-9.62-4.06-23.39,10.34-30.01,17.26l-.26.27c-15.75,16.46-33.2,31.78-50.07,46.6-14.87,13.06-30.24,26.56-44.45,40.83-17.8,17.88-26.9,26.21-35.7,34.28-9.43,8.64-18.34,16.8-36.99,36.06-8.26,8.53-10.13,10.65-15.11,16.32-5.33,6.06-14.25,16.2-38.67,42.86-3.16,3.45-6.06,6.62-8.74,9.53-11.95,13.02-19.34,21.08-23.68,26.47-11.05,10.01-22.3,20.63-33.66,31.87-16.2,16.02-31.14,31.85-44.91,47.27-25.52,30.84-43.94,57.76-56.14,76.82-25.23,39.44-32.82,59.32-64.86,111.18-15.49,25.08-26.78,43.1-40.34,61.61-37.54,51.23-72.52,103.11-131.51,150.13-16.65,13.27-31.04,22.97-40.06,28.79,10.2,35.31,27.48,82.12,57.61,132.49,14.69,24.55,44.78,70.59,94.45,118.19,72.52,69.5,144.79,102.09,168.8,112.25,66.18,27.98,126.64,38.05,171.27,41.47-1.22-14.32-2.53-32.97-3.29-54.81-.1-2.78-.79-37.56-.26-68.15,1.27-72.08,6.36-98.58,15.92-124.79,25.14-68.9,72.14-110.26,87.59-123.86,50.1-44.08,99.94-60.93,123.89-69.02,16.86-5.7,51.95-17.56,100.02-21.24,23.2-1.78,39.39-.79,52.4,0,18.66,1.14,29.91,1.82,43.43-7.38,9.86-6.72,17.21-14.9,42.94-94.94,29.09-90.5,27.02-101.9,21.24-113.01-6.87-13.18-16.35-17.09-27.33-21.62Z"/>
  </g>
</svg>